<svg width="220" height="42" viewBox="0 0 220 42" fill="none" xmlns="http://www.w3.org/2000/svg">
<g clip-path="url(#clip0_7797_5383)">
<path d="M119.668 26.8111C119.714 24.4957 118.732 23.532 116.287 23.488H116.131C113.712 23.488 112.667 24.4349 112.626 26.6455V30.6787C112.565 31.0919 112.598 31.5136 112.721 31.9127C112.844 32.3118 113.056 32.6782 113.339 32.985C114.168 33.5389 115.163 33.7901 116.155 33.6965H116.325C117.426 33.6984 118.521 33.5393 119.576 33.2243L119.424 32.121C118.45 32.3608 117.452 32.4909 116.449 32.509H116.319C114.481 32.478 113.935 32.4676 113.961 30.7046V29.4563L119.639 29.446L119.668 26.8111ZM118.375 28.2896H113.963L113.976 26.5498C114.004 25.1386 114.564 24.6393 116.121 24.6393H116.275C117.926 24.6664 118.419 25.1321 118.397 26.6235L118.375 28.2896Z" fill="#D9001A"/>
<path d="M172.626 33.545H178.359V32.421H173.878V29.1225H178.018V27.9997H173.878V24.9522H178.346V23.8268H172.626V33.545ZM170.298 31.0317C170.298 29.1367 170.168 28.7551 167.581 28.1161C165.657 27.6337 165.657 27.5767 165.657 26.2315C165.657 25.11 165.952 24.7918 167.54 24.7918C168.379 24.7938 169.215 24.8862 170.034 25.0673L170.136 24.0028C169.278 23.7913 168.398 23.6831 167.514 23.6807C165.11 23.6807 164.41 24.4982 164.41 26.1901C164.41 28.2041 164.688 28.6555 167.036 29.1781C169.037 29.6308 169.05 29.7486 169.05 31.0628C169.05 32.17 168.725 32.5762 167.165 32.5762C166.246 32.5727 165.332 32.4306 164.455 32.1545L164.248 33.179C165.174 33.5168 166.151 33.6889 167.137 33.6873C169.804 33.6873 170.303 32.7249 170.303 31.0317M162.283 31.0317C162.283 29.1367 162.154 28.7551 159.573 28.1161C157.65 27.6337 157.65 27.5767 157.65 26.2315C157.65 25.11 157.936 24.7918 159.527 24.7918C160.366 24.794 161.202 24.8864 162.021 25.0673L162.128 24.0028C161.268 23.7917 160.386 23.6836 159.501 23.6807C157.091 23.6807 156.386 24.4982 156.386 26.1901C156.386 28.2041 156.672 28.6555 159.018 29.1781C161.014 29.6308 161.027 29.7486 161.027 31.0628C161.027 32.17 160.712 32.5762 159.15 32.5762C158.229 32.573 157.313 32.4309 156.434 32.1545L156.233 33.179C157.156 33.5173 158.131 33.6894 159.114 33.6873C161.78 33.6873 162.279 32.7249 162.279 31.0317M152.399 30.1146H148.937L150.669 24.731L152.399 30.1146ZM151.516 23.8268H149.82L146.542 33.545H147.807L148.598 31.2076H152.724L153.525 33.545H154.796L151.516 23.8268ZM132.054 33.545H133.307V24.9522H136.207V23.8268H129.142V24.9522H132.045L132.054 33.545ZM127.763 31.0317C127.763 29.1367 127.634 28.7551 125.056 28.1161C123.132 27.6337 123.132 27.5767 123.132 26.2315C123.132 25.11 123.42 24.7918 125.009 24.7918C125.848 24.794 126.683 24.8864 127.502 25.0673L127.609 24.0028C126.75 23.7917 125.869 23.6836 124.985 23.6807C122.575 23.6807 121.866 24.4982 121.866 26.1901C121.866 28.2041 122.152 28.6555 124.498 29.1781C126.498 29.6308 126.51 29.7486 126.51 31.0628C126.51 32.17 126.197 32.5762 124.633 32.5762C123.711 32.5726 122.796 32.4304 121.916 32.1545L121.713 33.179C122.638 33.5168 123.616 33.6889 124.601 33.6873C127.276 33.6873 127.763 32.7249 127.763 31.0317Z" fill="#D9001A"/>
<path d="M209.032 7.73823V14.6482C209.032 15.846 208.378 16.4734 206.849 16.4734C205.32 16.4734 204.65 15.846 204.65 14.6482V7.73823H203.394V14.7232C203.394 16.3117 204.315 17.5974 206.844 17.5974C209.372 17.5974 210.286 16.3117 210.286 14.7232V7.73823H209.032ZM197.446 17.4577H198.709V8.86101H201.611V7.73823H194.545V8.86101H197.45L197.446 17.4577ZM193.307 7.7447H191.828L188.129 12.5061L192.295 17.4577H193.797L189.543 12.5126L193.307 7.7447ZM188.426 7.7447H187.172V17.4577H188.426V7.7447ZM183.366 7.7447V14.6482C183.366 15.846 182.707 16.4734 181.167 16.4734C179.628 16.4734 178.983 15.846 178.983 14.6482V7.73823H177.73V14.7232C177.73 16.3117 178.65 17.5974 181.167 17.5974C183.684 17.5974 184.616 16.3117 184.616 14.7232V7.73823L183.366 7.7447ZM162.784 17.4577H164.04V8.86101H166.941V7.73823H159.879V8.86101H162.781L162.784 17.4577ZM158.497 14.9483C158.497 13.0533 158.36 12.6717 155.781 12.0301C153.857 11.5489 153.857 11.492 153.857 10.1493C153.857 9.0227 154.152 8.70578 155.743 8.70578C156.581 8.71033 157.417 8.80268 158.236 8.9813L158.337 7.91803C157.477 7.70552 156.594 7.59738 155.708 7.59595C153.298 7.59595 152.604 8.41345 152.604 10.108C152.604 12.1168 152.881 12.5656 155.234 13.0973C157.232 13.55 157.245 13.6638 157.245 14.9755C157.245 16.0879 156.923 16.4953 155.362 16.4953C154.44 16.4903 153.524 16.3468 152.645 16.0698L152.446 17.0929C153.371 17.4332 154.35 17.6062 155.336 17.6039C158.006 17.6039 158.504 16.6415 158.504 14.9483M148.625 14.0221H145.153L146.881 8.63852L148.625 14.0221ZM147.732 7.73823H146.038L142.752 17.4577H144.024L144.81 15.1229H148.95L149.737 17.4577H151.013L147.732 7.73823ZM139.374 10.1429V10.9423C139.374 11.8891 138.969 12.2241 137.77 12.2241H135.365V8.86101H137.759C138.959 8.86101 139.363 9.17792 139.363 10.1429M139.751 17.4513H141.201L139.079 13.1891C139.57 13.0684 140 12.7713 140.286 12.3543C140.572 11.9374 140.695 11.4297 140.631 10.928V10.1274C140.631 8.63852 139.899 7.73823 137.816 7.73823H134.107V17.4577H135.363V13.3314H137.743L139.751 17.4513ZM127.609 17.4513V13.3288H131.827V12.2047H127.613V8.86101H132.14V7.73823H126.36V17.4577L127.609 17.4513ZM122.006 17.4513H123.729V7.73823H122.533V16.0504L118.309 7.73823H116.585V17.4577H117.78V9.17921L122.006 17.4513ZM113.884 7.73823H112.632V17.4577H113.884V7.73823Z" fill="#02588B"/>
<path d="M52.4146 15.0568C52.4063 14.8772 52.329 14.7077 52.1989 14.5836C52.0688 14.4596 51.8959 14.3904 51.7161 14.3906H48.9726C45.2214 14.3906 43.2061 16.7254 43.2061 21.329V32.8569C43.2061 33.2255 43.4182 33.5567 43.7028 33.5567H47.3078C47.5911 33.5567 47.8252 33.2255 47.8252 32.8569V21.329C47.8252 19.8635 48.0076 18.8287 49.3671 18.8287H51.7407C51.9123 18.82 52.0745 18.748 52.1961 18.6266C52.3177 18.5052 52.39 18.3431 52.3991 18.1716V18.178V18.1638C52.3991 18.1522 52.3991 18.1405 52.3991 18.1315V16.7629C52.4055 16.6336 52.4081 16.5042 52.3991 16.3749L52.4146 15.0568Z" fill="#02588B"/>
<path d="M0.129357 15.0517V32.8841C0.129685 33.0596 0.19909 33.2279 0.322552 33.3526C0.446014 33.4772 0.613602 33.5483 0.78905 33.5503H4.81835C4.99392 33.5483 5.16165 33.4773 5.28531 33.3526C5.40898 33.228 5.47867 33.0597 5.47934 32.8841V15.0517C5.47799 14.8768 5.40791 14.7095 5.28425 14.5858C5.16058 14.4622 4.99324 14.3921 4.81835 14.3907H0.787757C0.613216 14.3924 0.446342 14.4627 0.32316 14.5864C0.199977 14.71 0.130367 14.8772 0.129357 15.0517ZM5.6074 11.827V8.40305C5.60774 8.31626 5.59092 8.23026 5.5579 8.15C5.52489 8.06973 5.47633 7.99679 5.41502 7.93536C5.35371 7.87393 5.28086 7.82523 5.20066 7.79205C5.12046 7.75888 5.0345 7.74189 4.94771 7.74206H0.660992C0.574094 7.74172 0.487988 7.75858 0.407639 7.79168C0.32729 7.82478 0.254287 7.87345 0.192841 7.9349C0.131394 7.99635 0.0827194 8.06935 0.0496229 8.1497C0.0165264 8.23005 -0.000337018 8.31615 5.10312e-06 8.40305V11.827C4.43398e-06 11.9137 0.0171198 11.9995 0.0503692 12.0795C0.0836185 12.1596 0.132347 12.2323 0.19376 12.2935C0.255172 12.3546 0.328059 12.4031 0.408239 12.436C0.488418 12.469 0.574312 12.4857 0.660992 12.4854H4.94771C5.03428 12.4856 5.12003 12.4687 5.20006 12.4356C5.28009 12.4026 5.35283 12.3542 5.4141 12.293C5.47538 12.2319 5.52399 12.1592 5.55716 12.0792C5.59033 11.9993 5.6074 11.9136 5.6074 11.827ZM26.1497 32.8505V21.2347C26.1497 16.6803 23.6067 14.3675 18.8543 14.3675H17.2038C12.454 14.3675 9.91093 16.6803 9.91093 21.2347V32.8505C9.90246 33.0258 9.96367 33.1974 10.0812 33.3278C10.1987 33.4581 10.363 33.5367 10.5383 33.5464H14.6012C14.78 33.5381 14.9487 33.4611 15.0721 33.3314C15.1954 33.2018 15.264 33.0295 15.2635 32.8505V21.2347C15.2635 19.7821 15.4912 18.7564 17.2038 18.7564H18.8556C20.5747 18.7564 20.7959 19.7821 20.7959 21.2347V32.8505C20.796 33.0293 20.8648 33.2012 20.988 33.3307C21.1113 33.4603 21.2796 33.5375 21.4582 33.5464H25.5172C25.6929 33.5374 25.8579 33.4591 25.976 33.3286C26.094 33.1982 26.1556 33.0263 26.1471 32.8505M40.8751 8.6734V8.65141C40.8745 8.51458 40.8283 8.38186 40.7437 8.27431C40.6591 8.16676 40.541 8.09052 40.4082 8.05768C40.3724 8.04495 40.3356 8.03543 40.2982 8.02922C39.1329 7.856 37.9577 7.75792 36.7799 7.7356C33.4516 7.7356 30.3459 8.75618 30.3459 13.3184V32.8505C30.353 33.0333 30.4289 33.2066 30.5585 33.3357C30.688 33.4647 30.8616 33.54 31.0444 33.5464H35.0388C35.2201 33.5381 35.3916 33.4619 35.5193 33.333C35.647 33.2041 35.7216 33.0319 35.7282 32.8505V18.6218H40.2167C40.3034 18.622 40.3892 18.6051 40.4693 18.5721C40.5494 18.5391 40.6222 18.4907 40.6836 18.4295C40.745 18.3684 40.7937 18.2958 40.827 18.2158C40.8603 18.1358 40.8775 18.0501 40.8777 17.9634V15.2936C40.8779 15.2068 40.8609 15.1209 40.8277 15.0407C40.7945 14.9605 40.7458 14.8876 40.6844 14.8263C40.623 14.765 40.55 14.7164 40.4698 14.6834C40.3895 14.6504 40.3035 14.6336 40.2167 14.6339H35.7282V13.3184C35.7282 12.3625 35.9611 11.7339 36.9804 11.7339H40.2284C40.24 11.7339 40.2504 11.7339 40.2594 11.7339C40.2685 11.7339 40.2788 11.7339 40.2892 11.7339H40.3202H40.3267C40.4779 11.7175 40.6178 11.6456 40.7191 11.5321C40.8204 11.4186 40.876 11.2716 40.8751 11.1194V11.0949V8.6734Z" fill="#02588B"/>
<path d="M66.2357 21.0226V21.9422C66.2254 22.1027 66.1537 22.253 66.0354 22.3619C65.9171 22.4708 65.7614 22.5299 65.6006 22.5269H58.9532C58.8748 22.5303 58.7966 22.5175 58.7234 22.4893C58.6501 22.4611 58.5835 22.4181 58.5277 22.363C58.4718 22.3079 58.428 22.2419 58.3988 22.169C58.3696 22.0962 58.3558 22.0181 58.3582 21.9397V21.0226C58.3582 18.4601 59.4163 17.0308 62.394 17.0308C65.3716 17.0308 66.2357 18.4536 66.2357 21.0226ZM69.2897 24.528V21.3239C69.2897 17.5184 67.8177 14.3894 62.394 14.3894C56.9289 14.3894 55.1956 17.4434 55.1956 21.245V26.749C55.1956 30.786 57.5976 33.5477 61.5713 33.5477C65.7429 33.5477 66.3974 33.4714 68.3377 33.4714C68.353 33.4695 68.3678 33.4652 68.3817 33.4584C68.5362 33.447 68.6807 33.3776 68.7863 33.2642C68.8918 33.1507 68.9506 33.0016 68.9508 32.8466V32.8375V31.5104C68.9454 31.5001 68.9394 31.4902 68.9327 31.4806C68.9182 31.3501 68.8621 31.2276 68.7727 31.1314C68.6832 31.0352 68.5652 30.9703 68.436 30.9464C68.4099 30.9332 68.382 30.9241 68.3532 30.9193C66.3133 30.9193 65.3419 31.0046 62.3358 31.0046C58.9493 31.0046 58.3504 29.3528 58.353 26.714V25.7659C58.3523 25.6852 58.3677 25.6053 58.3983 25.5306C58.4289 25.456 58.4741 25.3882 58.5311 25.3312C58.5882 25.2743 58.6561 25.2293 58.7308 25.1988C58.8055 25.1684 58.8855 25.1532 58.9662 25.154L68.6365 25.1683H68.6598C68.8245 25.1676 68.9823 25.1021 69.099 24.9858C69.2157 24.8696 69.2819 24.7121 69.2832 24.5474V24.5267" fill="#D9001A"/>
<path d="M75.086 13.5306C75.1985 11.0574 77.2047 10.2968 79.5835 10.4042C81.3673 10.4844 82.5508 10.5594 84.2712 10.6887C84.2712 10.6887 84.2906 10.6887 84.2997 10.6887C84.458 10.6889 84.6103 10.6279 84.7248 10.5185C84.8393 10.4091 84.9071 10.2597 84.9141 10.1015V10.0898L84.9361 8.70059V8.67213C84.9359 8.52645 84.8837 8.38563 84.7888 8.27509C84.6939 8.16455 84.5627 8.09158 84.4187 8.06935C84.4092 8.06211 84.3981 8.05723 84.3863 8.05513C82.5537 7.83883 80.7097 7.73386 78.8643 7.7408C74.6837 7.72916 72.1639 10.2114 72.1251 13.6974C72.0578 18.5649 73.4509 19.9503 79.1101 21.6034C83.6581 23.0457 83.1316 23.5191 83.1666 26.6856C83.2015 29.7901 82.5625 30.9543 78.29 30.9724C76.1803 30.9724 74.945 30.9995 72.9271 30.9193C72.9103 30.9193 72.8973 30.9284 72.8844 30.931C72.7223 30.9344 72.5681 31.0014 72.4551 31.1176C72.342 31.2338 72.2793 31.3898 72.2803 31.5519V31.6075V32.7833C72.2803 32.8014 72.2803 32.8247 72.2803 32.8467C72.2806 33.0067 72.3428 33.1604 72.454 33.2754C72.5652 33.3905 72.7167 33.458 72.8766 33.4637H72.8896C74.8738 33.5646 75.941 33.5115 78.1309 33.5452C85.0279 33.6344 86.3227 31.2518 86.1921 26.6895C86.0783 22.4287 86.1093 20.6928 80.3635 18.8728C74.5944 17.0127 74.9463 16.7463 75.095 13.5202" fill="#D9001A"/>
<path d="M98.2789 15.2988V15.2794C98.2792 15.1978 98.2635 15.117 98.2326 15.0416C98.2017 14.9661 98.1563 14.8975 98.0989 14.8396C98.0415 14.7817 97.9732 14.7356 97.898 14.7041C97.8228 14.6726 97.7421 14.6562 97.6606 14.6559H92.449V8.05894C92.431 7.90469 92.3571 7.76239 92.2412 7.65895C92.1254 7.55551 91.9757 7.49809 91.8204 7.49756C91.765 7.50084 91.7105 7.51262 91.6587 7.53248L89.7546 8.03954C89.6436 8.08819 89.5492 8.16821 89.483 8.26978C89.4168 8.37135 89.3817 8.49005 89.3821 8.61128L89.3924 14.9366V29.0799C89.3924 32.077 91.6095 33.5503 94.4281 33.5503C95.5263 33.5773 96.625 33.522 97.7149 33.3847C97.7307 33.3827 97.7458 33.3769 97.7589 33.3679C97.8957 33.3442 98.0203 33.2744 98.112 33.1702C98.2038 33.066 98.2572 32.9336 98.2634 32.7949V32.7845V31.4781C98.2613 31.3155 98.1955 31.1603 98.0801 31.0459C97.9647 30.9314 97.8089 30.8669 97.6464 30.8662H97.6334C97.6231 30.8662 95.5431 30.9387 94.8239 30.9063C94.5047 30.9384 94.1823 30.8991 93.8801 30.7914C93.5779 30.6836 93.3034 30.5101 93.0764 30.2834C92.8495 30.0567 92.6757 29.7823 92.5676 29.4803C92.4595 29.1782 92.4199 28.8559 92.4516 28.5366V17.3037H97.6153C97.6244 17.3037 97.6308 17.3037 97.6464 17.3037C97.8068 17.3038 97.9609 17.2412 98.0759 17.1294C98.1909 17.0175 98.2577 16.8652 98.2621 16.7048L98.2737 16.6958L98.2815 15.2988H98.2789Z" fill="#D9001A"/>
<path d="M173.935 10.1104V10.9059C173.935 11.8541 173.525 12.1865 172.334 12.1865H169.928V8.82338H172.334C173.525 8.82338 173.935 9.14676 173.935 10.1169M174.323 17.4227H175.766L173.647 13.1541C174.137 13.0338 174.565 12.7368 174.85 12.3199C175.135 11.9031 175.255 11.3959 175.189 10.8956V10.0923C175.189 8.60607 174.458 7.7019 172.373 7.7019H168.675V17.4162H169.932V13.2977H172.296L174.323 17.4227Z" fill="#02588B"/>
<path d="M143.135 26.2302V27.0296C143.135 27.9751 142.727 28.314 141.534 28.314H139.118V24.9509H141.534C142.727 24.9509 143.135 25.2717 143.135 26.234M143.524 33.545H144.97L142.843 29.2764C143.335 29.1564 143.766 28.8591 144.052 28.4414C144.339 28.0237 144.461 27.515 144.395 27.0127V26.2159C144.395 24.7284 143.665 23.8242 141.579 23.8242H137.871V33.5411H139.123V29.4187H141.507L143.524 33.545Z" fill="#D9001A"/>
<path d="M218.167 10.1427V10.9421C218.167 11.8889 217.757 12.2227 216.564 12.2227H214.159V8.85952H216.564C217.757 8.85952 218.167 9.17772 218.167 10.1414M218.555 17.4498H220L217.881 13.1812C218.371 13.0593 218.799 12.7615 219.083 12.3444C219.367 11.9274 219.488 11.4204 219.422 10.9201V10.1272C219.422 8.63832 218.696 7.73804 216.605 7.73804H212.904V17.4575H214.159V13.3312H216.535L218.555 17.4498Z" fill="#02588B"/>
</g>
<defs>
<clipPath id="clip0_7797_5383">
<rect width="220" height="41.1952" fill="white"/>
</clipPath>
</defs>
</svg>
